<?xml version="1.0" encoding="utf-8"?>
<!-- Generator: Adobe Illustrator 19.0.0, SVG Export Plug-In . SVG Version: 6.00 Build 0)  -->
<svg version="1.1" id="Layer_1" xmlns="http://www.w3.org/2000/svg" xmlns:xlink="http://www.w3.org/1999/xlink" x="0px" y="0px"
	 viewBox="-396 267.5 165.1 27.5" style="enable-background:new -396 267.5 165.1 27.5;" xml:space="preserve">
<style type="text/css">
	.st0{fill:#EE5644;}
	.st1{fill:#202025;}
</style>
<g id="XMLID_43_">
	<g id="XMLID_63_">
		<g id="XMLID_119_">
			<g id="XMLID_164_">
				<g id="XMLID_203_">
					<path id="XMLID_204_" class="st0" d="M-370.7,278.7c0,0.3-0.2,0.5-0.5,0.5h-9.5c-0.3,0-0.5-0.2-0.5-0.5v-1.1
						c0-0.3,0.2-0.5,0.5-0.5h9.5c0.3,0,0.5,0.2,0.5,0.5V278.7z"/>
				</g>
				<g id="XMLID_201_">
					<path id="XMLID_202_" class="st0" d="M-366.5,281.8c0,0.3-0.2,0.5-0.5,0.5h-11.7c-0.3,0-0.5-0.2-0.5-0.5v-1.1
						c0-0.3,0.2-0.5,0.5-0.5h11.6c0.3,0,0.5,0.2,0.5,0.5L-366.5,281.8L-366.5,281.8z"/>
				</g>
				<g id="XMLID_199_">
					<path id="XMLID_200_" class="st0" d="M-363.3,285c0,0.3-0.2,0.5-0.5,0.5h-12.7c-0.3,0-0.5-0.2-0.5-0.5v-1.1
						c0-0.3,0.2-0.5,0.5-0.5h12.7c0.3,0,0.5,0.2,0.5,0.5V285L-363.3,285z"/>
				</g>
				<g id="XMLID_172_">
					<path id="XMLID_197_" class="st0" d="M-363.3,288.2c0,0.3-0.2,0.5-0.5,0.5h-12.7c-0.3,0-0.5-0.2-0.5-0.5v-1.1
						c0-0.3,0.2-0.5,0.5-0.5h12.7c0.3,0,0.5,0.2,0.5,0.5V288.2L-363.3,288.2z"/>
				</g>
				<g id="XMLID_223_">
					<path id="XMLID_171_" class="st0" d="M-366.5,291.3c0,0.3-0.2,0.5-0.5,0.5h-11.7c-0.3,0-0.5-0.2-0.5-0.5v-1.1
						c0-0.3,0.2-0.5,0.5-0.5h11.6c0.3,0,0.5,0.2,0.5,0.5L-366.5,291.3L-366.5,291.3z"/>
				</g>
				<g id="XMLID_167_">
					<path id="XMLID_168_" class="st0" d="M-370.7,294.5c0,0.3-0.2,0.5-0.5,0.5h-9.5c-0.3,0-0.5-0.2-0.5-0.5v-1.1
						c0-0.3,0.2-0.5,0.5-0.5h9.5c0.3,0,0.5,0.2,0.5,0.5V294.5z"/>
				</g>
			</g>
			<g id="XMLID_121_">
				<g id="XMLID_162_">
					<path id="XMLID_163_" class="st0" d="M-388.7,269.1c0,0.3,0.2,0.5,0.5,0.5h9.5c0.3,0,0.5-0.2,0.5-0.5V268
						c0-0.3-0.2-0.5-0.5-0.5h-9.5c-0.3,0-0.5,0.2-0.5,0.5V269.1L-388.7,269.1z"/>
				</g>
				<g id="XMLID_160_">
					<path id="XMLID_161_" class="st0" d="M-392.8,272.3c0,0.3,0.2,0.5,0.5,0.5h11.6c0.3,0,0.5-0.2,0.5-0.5v-1.1
						c0-0.3-0.2-0.5-0.5-0.5h-11.6c-0.3,0-0.5,0.2-0.5,0.5V272.3L-392.8,272.3z"/>
				</g>
				<g id="XMLID_144_">
					<path id="XMLID_145_" class="st0" d="M-396,275.5c0,0.3,0.2,0.5,0.5,0.5h12.7c0.3,0,0.5-0.2,0.5-0.5v-1.1
						c0-0.3-0.2-0.5-0.5-0.5h-12.7c-0.3,0-0.5,0.2-0.5,0.5V275.5z"/>
				</g>
				<g id="XMLID_130_">
					<path id="XMLID_141_" class="st0" d="M-396,278.7c0,0.3,0.2,0.5,0.5,0.5h12.7c0.3,0,0.5-0.2,0.5-0.5v-1.1
						c0-0.3-0.2-0.5-0.5-0.5h-12.7c-0.3,0-0.5,0.2-0.5,0.5V278.7z"/>
				</g>
				<g id="XMLID_128_">
					<path id="XMLID_129_" class="st0" d="M-392.8,281.8c0,0.3,0.2,0.5,0.5,0.5h11.6c0.3,0,0.5-0.2,0.5-0.5v-1.1
						c0-0.3-0.2-0.5-0.5-0.5h-11.6c-0.3,0-0.5,0.2-0.5,0.5V281.8L-392.8,281.8z"/>
				</g>
				<g id="XMLID_125_">
					<path id="XMLID_127_" class="st0" d="M-388.7,285c0,0.3,0.2,0.5,0.5,0.5h9.5c0.3,0,0.5-0.2,0.5-0.5v-1.1c0-0.3-0.2-0.5-0.5-0.5
						h-9.5c-0.3,0-0.5,0.2-0.5,0.5V285L-388.7,285z"/>
				</g>
			</g>
		</g>
	</g>
	<g id="XMLID_1_">
		<g id="XMLID_44_">
			<g id="XMLID_288_">
				<path id="XMLID_61_" class="st1" d="M-350.8,287.5c-0.5,0.1-1,0.1-1.5,0.1c-1.3,0-2.3-0.2-3-0.6c-0.6-0.4-1.1-1-1.3-1.9
					c-0.2-0.9-0.3-2.2-0.3-3.9c0-1.7,0.1-3,0.3-3.9s0.6-1.5,1.3-1.9c0.6-0.4,1.6-0.6,3-0.6c0.5,0,0.9,0,1.4,0.1s0.9,0.2,1.2,0.2v2.2
					c-1-0.1-1.7-0.2-2-0.2c-0.8,0-1.4,0.1-1.7,0.2c-0.3,0.1-0.5,0.5-0.6,1c-0.1,0.5-0.1,1.4-0.1,2.8s0,2.3,0.1,2.8
					c0.1,0.5,0.3,0.8,0.6,1c0.3,0.2,0.9,0.2,1.7,0.2c0.7,0,1.4-0.1,2.1-0.2v2.2C-349.8,287.3-350.3,287.4-350.8,287.5z"/>
				<path id="XMLID_59_" class="st1" d="M-346.5,287c-0.6-0.4-1-0.9-1.2-1.8c-0.2-0.8-0.2-2.2-0.2-4c0-1.9,0.1-3.2,0.2-4
					c0.1-0.8,0.5-1.4,1.2-1.8c0.6-0.4,1.7-0.5,3.2-0.5s2.6,0.2,3.2,0.5c0.6,0.4,1,0.9,1.2,1.8c0.2,0.8,0.2,2.1,0.2,4s-0.1,3.2-0.2,4
					c-0.2,0.8-0.5,1.4-1.2,1.8s-1.7,0.5-3.2,0.5C-344.8,287.6-346,287.4-346.5,287z M-342,285c0.2-0.1,0.4-0.5,0.4-0.9
					c0.1-0.5,0.1-1.5,0.1-2.9s0-2.4-0.1-2.9c-0.1-0.5-0.2-0.8-0.4-0.9c-0.2-0.1-0.7-0.2-1.3-0.2s-1.1,0.1-1.3,0.2
					c-0.2,0.1-0.4,0.5-0.4,0.9c-0.1,0.5-0.1,1.5-0.1,2.9s0,2.4,0.1,2.9c0.1,0.5,0.2,0.8,0.4,0.9s0.7,0.2,1.3,0.2
					S-342.3,285.2-342,285z"/>
				<path id="XMLID_53_" class="st1" d="M-330.3,287.4l-3.6-7.1h-0.1v7.1h-2.7V275h2.8l3.4,6.5h0.1V275h2.7v12.4H-330.3z"/>
				<path id="XMLID_52_" class="st1" d="M-323.5,287.4v-9.9h-2.9v-2.4h8.6v2.4h-2.9v9.9H-323.5z"/>
				<path id="XMLID_51_" class="st1" d="M-316.5,287.4V275h7.4v2.3h-4.7v2.6h4v2.3h-4v2.8h4.7v2.3h-7.4V287.4z"/>
				<path id="XMLID_50_" class="st1" d="M-300.7,287.4l-3.6-7.1h-0.1v7.1h-2.7V275h2.8l3.4,6.5h0.1V275h2.7v12.4H-300.7z"/>
				<path id="XMLID_49_" class="st1" d="M-293.8,287.4v-9.9h-2.9v-2.4h8.6v2.4h-2.9v9.9H-293.8z"/>
				<path id="XMLID_298_" class="st1" d="M-286.8,287.3v-2.2c1.5,0.1,2.5,0.2,3.2,0.2c0.5,0,0.9,0,1.2-0.1c0.3-0.1,0.5-0.1,0.6-0.2
					c0.1-0.1,0.2-0.2,0.2-0.4s0-0.4,0-0.7c0-0.4,0-0.7-0.1-0.8c-0.1-0.2-0.2-0.3-0.3-0.4c-0.2-0.1-0.4-0.2-0.8-0.2l-2-0.3
					c-0.9-0.1-1.5-0.5-1.9-1.1c-0.4-0.6-0.5-1.4-0.5-2.5c0-1,0.2-1.8,0.5-2.4c0.3-0.5,0.8-0.9,1.4-1.1c0.6-0.2,1.4-0.3,2.3-0.3
					c1.1,0,2.3,0.1,3.5,0.4v2.2c-1.1-0.1-2-0.2-2.9-0.2c-0.9,0-1.5,0.1-1.7,0.2s-0.2,0.2-0.3,0.4s-0.1,0.4-0.1,0.7s0,0.6,0.1,0.7
					c0.1,0.1,0.1,0.2,0.2,0.3c0.1,0.1,0.3,0.1,0.7,0.2l2.1,0.3c0.5,0.1,0.9,0.2,1.2,0.4c0.3,0.2,0.6,0.5,0.8,0.9
					c0.2,0.5,0.4,1.3,0.4,2.3c0,1.2-0.2,2-0.5,2.6s-0.8,1-1.3,1.2s-1.3,0.3-2.2,0.3C-284.5,287.6-285.8,287.4-286.8,287.3z"/>
				<path id="XMLID_296_" class="st1" d="M-275.2,287.4v-9.9h-2.9v-2.4h8.6v2.4h-2.9v9.9H-275.2z"/>
				<path id="XMLID_293_" class="st1" d="M-262,287.4l-0.6-2.5h-3.7l-0.6,2.5h-2.8l3.3-12.4h3.9l3.3,12.4H-262z M-264.5,277.6
					L-264.5,277.6l-1.3,5h2.5L-264.5,277.6z"/>
				<path id="XMLID_291_" class="st1" d="M-252.2,287.5c-0.5,0.1-1,0.1-1.5,0.1c-1.3,0-2.3-0.2-3-0.6c-0.7-0.4-1.1-1-1.3-1.9
					s-0.3-2.2-0.3-3.9c0-1.7,0.1-3,0.3-3.9c0.2-0.9,0.6-1.5,1.3-1.9c0.6-0.4,1.6-0.6,3-0.6c0.5,0,0.9,0,1.4,0.1s0.9,0.2,1.2,0.2v2.2
					c-1-0.1-1.7-0.2-2-0.2c-0.8,0-1.4,0.1-1.7,0.2c-0.3,0.2-0.5,0.5-0.6,1s-0.1,1.4-0.1,2.8s0,2.3,0.1,2.8s0.3,0.8,0.6,1
					c0.3,0.2,0.9,0.2,1.7,0.2c0.7,0,1.4-0.1,2.1-0.2v2.2C-251.3,287.3-251.7,287.4-252.2,287.5z"/>
				<path id="XMLID_289_" class="st1" d="M-242.9,287.4l-2.8-5.1h-0.8v5.1h-2.8V275h2.8v4.9h0.8l2.8-4.9h3l-3.6,5.9l3.6,6.4
					L-242.9,287.4L-242.9,287.4z"/>
			</g>
		</g>
		<g id="XMLID_2_">
			<path id="XMLID_235_" class="st1" d="M-236.8,278.7v-3h-1.1v-0.6h2.9v0.6h-1.1v3H-236.8z"/>
			<path id="XMLID_205_" class="st1" d="M-234.4,278.7V275h1.1l0.7,2.5l0.7-2.5h1.1v3.7h-0.7v-2.9l-0.7,2.9h-0.7l-0.7-2.9v2.9
				H-234.4z"/>
		</g>
	</g>
</g>
</svg>
